# xmcd
#
# Track frame offsets:
#	150
#	14185
#	26972
#	43862
#	58462
#	73547
#	90457
#	108415
#	125725
#
# Disc length: 1956 seconds
#
# Revision: 1
# Processed by: cddbd v1.4PL0 Copyright (c) Steve Scherf et al.
# Submitted via: audiograbber 1.81.03
#
DISCID=8907a209
DTITLE=The Bastard Sons Of Johnny Cash - The Bastard Sons Of Johnny Cash
DYEAR=2001
DGENRE=Country
TTITLE0=Texas Sun
TTITLE1=Intersatate Cannonball
TTITLE2=440 Horses
TTITLE3=Seven Steps
TTITLE4=Blade
TTITLE5=Lonesome Sky
TTITLE6=Crying Over You
TTITLE7=Trains Gonna Roll
TTITLE8=Memphis Woman
EXTD=
EXTT0=
EXTT1=
EXTT2=
EXTT3=
EXTT4=
EXTT5=
EXTT6=
EXTT7=
EXTT8=
PLAYORDER=
